<?xml version="1.0"?>
<svg width="598.486" height="605" xmlns="http://www.w3.org/2000/svg" xmlns:svg="http://www.w3.org/2000/svg">
 <g class="layer">
  <title>Layer 1</title>
  <g id="svg_1" transform="translate(0,35.625)">
   <path d="m277.7249,-33.129513c132.565,-9.192 220.463,55.68 270.721,134.719003c25.2,39.63 49.925,99.82 50.039,161.663c0.122,67.194 -21.646,125.383 -50.039,168.078c-29.182,43.883 -66.926,80.128 -114.19,103.927c-79.006,39.783 -189.42,40.871 -261.741,2.566c-80.542003,-42.658 -142.468003,-103.545 -165.512003,-209.136c-9.222,-42.256 -10.282,-96.855 2.566,-143.7c3.015,-10.989 8.494,-22.554 12.831,-33.359c20.842,-51.924 56.317,-97.076003 100.077003,-128.305003c17.584,-12.548 38.916,-25.028 57.737,-33.359c23.418,-10.365 62.846,-20.691 97.511,-23.094z" fill="#fff" id="svg_2"/>
   <path d="m529.1839,270.72449c0,125.288 -101.566,226.847 -226.852,226.847c-125.286,0 -226.850003,-101.559 -226.850003,-226.847c0,-125.285 101.564003,-226.852003 226.850003,-226.852003c125.285,0 226.852,101.567003 226.852,226.852003z" fill="#000" id="svg_3"/>
   <path d="m277.7249,-33.129513c132.565,-9.192 220.463,55.68 270.721,134.719003c25.2,39.63 49.925,99.82 50.039,161.663c0.122,67.194 -21.646,125.383 -50.039,168.078c-29.182,43.883 -66.926,80.128 -114.19,103.927c-79.006,39.783 -189.42,40.871 -261.741,2.566c-80.542003,-42.658 -142.468003,-103.545 -165.512003,-209.136c-9.222,-42.256 -10.282,-96.855 2.566,-143.7c3.015,-10.989 8.494,-22.554 12.831,-33.359c20.842,-51.924 56.317,-97.076003 100.077003,-128.305003c17.584,-12.548 38.916,-25.028 57.737,-33.359c23.418,-10.365 62.846,-20.691 97.511,-23.094zm-44.907,21.812c-49.239,12.766 -85.342,35.637 -116.756,60.303c-45.299003,35.568003 -74.177003,85.203003 -91.096003,144.983003c-18.823,66.508 -6.732,146.99 19.246,197.588c26.939,52.472 63.110003,93.203 114.190003,121.889c49.695,27.908 119.591,45.828 192.457,32.076c64.74,-12.218 113.909,-40.421 153.965,-82.115c53.592,-55.785 96.665,-158.534 68.002,-266.872c-7.662,-28.955 -17.679,-59.133 -33.36,-84.681c-8.472,-13.802 -20.904,-27.38 -33.359,-41.057c-47.006,-51.621003 -122.979,-96.104003 -220.684,-89.813003c-18.594,1.197 -34.935,3.117 -52.605,7.699z" fill="#000" id="svg_4"/>
   <g fill="none" id="hashpattern" stroke="#fff" stroke-width="2">
    <g id="svg_5">
     <line id="svg_6" x1="316.05" x2="578.188" y1="542.79" y2="280.658"/>
     <line id="svg_7" x1="293.134" x2="556.415" y1="522.03" y2="258.754"/>
     <line id="svg_8" x1="270.217" x2="534.643" y1="501.273" y2="236.851"/>
     <line id="svg_9" x1="247.3" x2="512.87" y1="480.513" y2="214.948"/>
     <line id="svg_10" x1="224.384" x2="491.098" y1="459.754" y2="193.044"/>
     <line id="svg_11" x1="201.467" x2="469.324" y1="439" y2="171.141"/>
     <line id="svg_12" x1="178.55" x2="447.552" y1="418.236" y2="149.238"/>
     <line id="svg_13" x1="155.633" x2="425.778" y1="397.477" y2="127.334"/>
     <line id="svg_14" x1="132.716" x2="404" y1="376.718" y2="105.431"/>
     <line id="svg_15" x1="109.8" x2="382.233" y1="355.958" y2="83.528"/>
     <line id="svg_16" x1="86.883" x2="360.46" y1="335.2" y2="61.625"/>
     <line id="svg_17" x1="63.966" x2="338.688" y1="314.441" y2="39.721"/>
     <line id="svg_18" x1="41.049" x2="316.915" y1="293.681" y2="17.818"/>
     <line id="svg_19" x1="18.132" x2="295.142" y1="272.922" y2="-4.085"/>
    </g>
    <g id="svg_20">
     <line id="svg_21" x1="18.043" x2="285.419" y1="275.572" y2="542.96"/>
     <line id="svg_22" x1="39.726" x2="307.622" y1="253.579" y2="521.488"/>
     <line id="svg_23" x1="61.409" x2="329.825" y1="231.586" y2="500.014"/>
     <line id="svg_24" x1="83.092" x2="352.029" y1="209.593" y2="478.542"/>
     <line id="svg_25" x1="104.774" x2="374.231" y1="187.6" y2="457.068"/>
     <line id="svg_26" x1="126.457" x2="396.436" y1="165.607" y2="435.595"/>
     <line id="svg_27" x1="148.14" x2="418.639" y1="143.614" y2="414.122"/>
     <line id="svg_28" x1="169.822" x2="440.842" y1="121.621" y2="392.648"/>
     <line id="svg_29" x1="191.505" x2="463.046" y1="99.628" y2="371.175"/>
     <line id="svg_30" x1="213.188" x2="485.248" y1="77.635" y2="349.7"/>
     <line id="svg_31" x1="234.871" x2="507.452" y1="55.642" y2="328.229"/>
     <line id="svg_32" x1="256.553" x2="529.655" y1="33.649" y2="306.755"/>
     <line id="svg_33" x1="278.236" x2="551.858" y1="11.657" y2="285.283"/>
     <line id="svg_34" x1="299.92" x2="574.062" y1="-10.336" y2="263.809"/>
    </g>
   </g>
   <path d="m490.7099,72.07949c-23.593,-23.593003 -52.599,-44.853003 -87.247,-57.737003c-35.914,-13.355 -76.54,-24.612 -124.455,-20.529c-76.326,6.506 -129.916,40.751 -170.645,80.832003c-28.528003,28.073 -49.987003,62.474 -64.152003,102.643c-20.798,58.981 -19.536,128.598 3.849,188.607c19.947,51.187 52.595003,92.473 98.794003,124.455c43.431,30.067 105.765,53.386 175.776,47.473c85.272,-7.202 147.664,-50.95 188.607,-101.36c10.476,-12.896 20.892,-27.473 26.943,-44.906c5.929,-12.561 8.831,-21.1 11.548,-25.661c11.372,-25.482 17.397,-52.368 19.245,-82.114c5.685,-91.492 -29.517,-162.956 -78.263,-211.703zm-25.131,278.748c-0.163,0.348 -0.309,0.672 -0.479,1.031c-4.23,12.105 -11.517,22.227 -18.841,31.183c-28.634,35.004 -72.263,65.382 -131.895,70.384c-48.961,4.104 -92.552,-12.087 -122.923,-32.965c-26.392,-18.143 -46.454,-40.601 -60.522,-67.591c-0.858,-1.624 -9.028,-20.447 -9.052,-21.275c-11.145,-34.569 -12.112,-90.155 -0.673,-123.512c7.634,-22.263 20.357,-46.351 37.208,-65.435c23.266,-26.351 46.549,-43.236 83.398,-55.171c16.825,-5.45 31.887,-10.997 52.604,-11.547c50.52,-1.345 101.965,21.338 129.587,46.189c25.384,22.837 54.314,67.322 61.587,109.058c7.485,42.957 -0.503,84.898 -19.999,119.651z" id="svg_35"/>
   <path d="m377.768,392.033c-12.44,0 -23.357,-7.878 -27.167,-19.604l-13.856,-42.218l-69.315,0l-12.874,41.833c-3.886,11.954 -14.886,19.956 -27.39,19.956c-3.002,0 -5.984,-0.475 -8.863,-1.409c-14.946,-4.487 -23.431,-20.574 -18.852,-35.84l58.506,-185.323c3.799,-11.789 14.983,-20.012 27.2,-20.012l31.11,0c12.286,0 23.469,8.083 27.194,19.657l61.529,185.254c4.92,15.146 -3.227,31.405 -18.151,36.263c-2.951,0.958 -6.002,1.443 -9.071,1.443l0,0z" fill="#fff" id="svg_36" stroke="#000" stroke-width="6"/>
   <g fill="#fff" id="OAUTH">
    <g id="svg_37">
     <path d="m148.001,90.354l-0.073,-0.099c-7.296,-9.999 -5.155,-23.987 5.59,-31.829c10.745,-7.841 24.548,-5.64 31.844,4.358l0.073,0.099c7.296,9.999 5.155,23.988 -5.59,31.829c-10.745,7.841 -24.548,5.641 -31.844,-4.358zm27.657,-20.183l-0.073,-0.099c-3.666,-5.024 -10.492,-6.752 -15.814,-2.868c-5.273,3.848 -5.683,10.703 -2.017,15.728l0.073,0.099c3.667,5.024 10.492,6.752 15.765,2.904c5.323,-3.884 5.733,-10.739 2.066,-15.764z" id="svg_38"/>
     <path d="m218.344,24.817l10.965,-3.518l30.739,35.734l-12.197,3.913l-5.342,-6.37l-15.833,5.08l-0.58,8.271l-11.962,3.838l4.21,-46.948zm18.04,21.958l-8.318,-10.202l-0.889,13.156l9.207,-2.954z" id="svg_39"/>
     <path d="m279.795,35.567l0.096,-24.203l12.132,0.048l-0.095,23.957c-0.025,6.22 3.104,9.188 7.908,9.208c4.804,0.019 7.956,-2.801 7.979,-8.836l0.097,-24.264l12.132,0.048l-0.095,23.895c-0.055,13.918 -8.023,19.984 -20.279,19.935c-12.255,-0.05 -19.928,-6.301 -19.875,-19.788z" id="svg_40"/>
     <path d="m363.859,31.338l-12.368,-3.775l3.056,-10.013l36.163,11.037l-3.056,10.013l-12.368,-3.774l-9.527,31.216l-11.426,-3.487l9.526,-31.217z" id="svg_41"/>
     <path d="m423.012,42.559l9.946,6.619l-8.938,13.432l12.766,8.496l8.939,-13.433l9.946,6.619l-23.883,35.889l-9.947,-6.619l9.076,-13.638l-12.767,-8.496l-9.075,13.638l-9.946,-6.619l23.883,-35.888z" id="svg_42"/>
    </g>
    <g id="svg_43">
     <path d="m458.146,434.883l0.076,0.097c7.674,9.713 6.068,23.775 -4.37,32.021c-10.438,8.246 -24.316,6.574 -31.99,-3.139l-0.076,-0.097c-7.674,-9.714 -6.067,-23.775 4.37,-32.021c10.438,-8.245 24.316,-6.574 31.99,3.139zm-26.869,21.227l0.076,0.097c3.856,4.881 10.743,6.347 15.914,2.262c5.122,-4.047 5.271,-10.913 1.414,-15.794l-0.076,-0.097c-3.855,-4.881 -10.743,-6.347 -15.865,-2.3c-5.171,4.085 -5.319,10.951 -1.463,15.832z" id="svg_44"/>
     <path d="m390.707,503.182l-10.8,3.997l-32.282,-34.346l12.013,-4.447l5.618,6.13l15.594,-5.772l0.215,-8.288l11.782,-4.361l-2.14,47.087zm-18.989,-21.142l8.759,9.825l0.309,-13.182l-9.068,3.357z" id="svg_45"/>
     <path d="m328.888,494.985l1.067,24.179l-12.12,0.535l-1.057,-23.933c-0.274,-6.214 -3.542,-9.028 -8.341,-8.816c-4.799,0.212 -7.812,3.181 -7.546,9.21l1.07,24.24l-12.12,0.535l-1.054,-23.871c-0.614,-13.904 7.054,-20.346 19.297,-20.886c12.244,-0.541 20.209,5.333 20.804,18.807z" id="svg_46"/>
     <path d="m244.671,502.891l12.487,3.371l-2.729,10.108l-36.511,-9.855l2.729,-10.109l12.487,3.371l8.507,-31.516l11.536,3.114l-8.506,31.516z" id="svg_47"/>
     <path d="m185.65,494.108l-10.249,-6.142l8.295,-13.841l-13.153,-7.884l-8.295,13.841l-10.248,-6.142l22.164,-36.979l10.248,6.143l-8.422,14.052l13.154,7.884l8.422,-14.052l10.248,6.143l-22.164,36.977z" id="svg_48"/>
    </g>
   </g>
  </g>
 </g>
</svg>