<?xml version="1.0" encoding="utf-8"?>
<svg width="171px" height="87px" version="1.1" viewBox="0 0 171 87" xmlns="http://www.w3.org/2000/svg">
  <defs id="defs4968">
    <clipPath clipPathUnits="userSpaceOnUse" id="clipPath4980">
      <path d="m0,350l612,0l0,92l-612,0l0,-92z" id="path4982"/>
    </clipPath>
  </defs>
  <g class="layer" transform="matrix(1, 0, 0, 1.011435, 0, 5.999982)">
    <title>Layer 1</title>
    <g id="g4972" transform="matrix(1.25 0 0 -1.25 -232.19 517.68)">
      <g clip-path="url(#clipPath4980)" id="g4978">
        <g id="g5618" transform="matrix(.39247 0 0 .39247 185.75 240.62)">
          <g id="svg_1" transform="matrix(1, 0, 0, 1, -111.864922, -73.592552)">
            <path d="M 112.15 422.239 L 114.67 422.239 L 114.67 405.879 C 114.63 399.729 117.55 397.399 122.4 397.399 C 127.29 397.399 130.22 399.729 130.18 405.879 L 130.18 422.239 L 132.69 422.239 L 132.69 405.319 C 132.69 399.879 129.77 395.249 122.4 395.249 C 115.07 395.249 112.15 399.879 112.15 405.319 L 112.15 422.239" id="path4984" style="fill: rgb(255, 255, 255);"/>
            <path d="M 137.29 414.909 L 139.62 414.909 L 139.62 411.619 L 139.7 411.619 C 140.55 413.909 143.1 415.469 145.8 415.469 C 151.17 415.469 152.8 412.649 152.8 408.099 L 152.8 395.809 L 150.47 395.809 L 150.47 407.729 C 150.47 411.019 149.39 413.499 145.62 413.499 C 141.92 413.499 139.7 410.689 139.62 406.949 L 139.62 395.809 L 137.29 395.809 L 137.29 414.909" id="path4986" style="fill: rgb(255, 255, 255);"/>
            <path d="M 157.24 414.909 L 159.57 414.909 L 159.57 395.809 L 157.24 395.809 L 157.24 414.909 Z M 157.24 422.239 L 159.57 422.239 L 159.57 418.499 L 157.24 418.499 L 157.24 422.239 Z" id="path4988" style="fill: rgb(255, 255, 255);"/>
            <path d="M 161.91 414.909 L 164.5 414.909 L 170.5 398.139 L 170.57 398.139 L 176.5 414.909 L 178.9 414.909 L 171.76 395.809 L 169.28 395.809 L 161.91 414.909" id="path4990" style="fill: rgb(255, 255, 255);"/>
            <path d="M 194.93 406.689 C 194.82 410.209 192.63 413.499 188.86 413.499 C 185.05 413.499 182.94 410.169 182.57 406.689 L 194.93 406.689 Z M 182.57 404.729 C 182.6 401.319 184.38 397.209 188.86 397.209 C 192.27 397.209 194.12 399.209 194.86 402.099 L 197.19 402.099 C 196.19 397.769 193.67 395.249 188.86 395.249 C 182.79 395.249 180.23 399.919 180.23 405.359 C 180.23 410.389 182.79 415.459 188.86 415.459 C 195 415.459 197.45 410.099 197.26 404.729 L 182.57 404.729" id="path4992" style="fill: rgb(255, 255, 255);"/>
            <path d="M 200.41 414.909 L 202.56 414.909 L 202.56 410.429 L 202.63 410.429 C 203.82 413.499 206.41 415.319 209.85 415.169 L 209.85 412.839 C 205.63 413.059 202.74 409.949 202.74 405.989 L 202.74 395.809 L 200.41 395.809 L 200.41 414.909" id="path4994" style="fill: rgb(255, 255, 255);"/>
            <path d="M 223.51 409.319 C 223.4 412.209 221.18 413.499 218.51 413.499 C 216.44 413.499 214 412.689 214 410.209 C 214 408.139 216.36 407.389 217.96 406.989 L 221.07 406.279 C 223.73 405.879 226.51 404.319 226.51 400.989 C 226.51 396.849 222.4 395.249 218.85 395.249 C 214.4 395.249 211.37 397.329 211 401.989 L 213.33 401.989 C 213.51 398.839 215.85 397.209 218.96 397.209 C 221.14 397.209 224.18 398.179 224.18 400.839 C 224.18 403.059 222.1 403.809 219.99 404.319 L 216.99 404.989 C 213.96 405.799 211.66 406.839 211.66 410.099 C 211.66 413.979 215.48 415.469 218.85 415.469 C 222.66 415.469 225.69 413.469 225.84 409.319 L 223.51 409.319" id="path4996" style="fill: rgb(255, 255, 255);"/>
            <path d="M 229.92 414.909 L 232.25 414.909 L 232.25 395.809 L 229.92 395.809 L 229.92 414.909 Z M 229.92 422.239 L 232.25 422.239 L 232.25 418.499 L 229.92 418.499 L 229.92 422.239 Z" id="path4998" style="fill: rgb(255, 255, 255);"/>
            <path d="M 240.43 414.909 L 244.32 414.909 L 244.32 412.949 L 240.43 412.949 L 240.43 400.069 C 240.43 398.549 240.65 397.659 242.32 397.549 C 242.98 397.549 243.65 397.589 244.32 397.659 L 244.32 395.659 C 243.61 395.659 242.95 395.589 242.24 395.589 C 239.13 395.589 238.06 396.619 238.1 399.879 L 238.1 412.949 L 234.76 412.949 L 234.76 414.909 L 238.1 414.909 L 238.1 420.649 L 240.43 420.649 L 240.43 414.909" id="path5000" style="fill: rgb(255, 255, 255);"/>
            <path d="M 245.54 414.909 L 248.02 414.909 L 254.31 398.619 L 260.2 414.909 L 262.53 414.909 L 254.24 392.879 C 252.91 389.659 252.13 388.739 249.2 388.739 C 248.28 388.769 247.8 388.769 247.43 388.919 L 247.43 390.889 C 247.98 390.769 248.5 390.699 249.02 390.699 C 251.09 390.699 251.57 391.919 252.35 393.699 L 253.17 395.879 L 245.54 414.909" id="path5002" style="fill: rgb(255, 255, 255);"/>
            <path d="M 276.49 405.359 C 276.49 401.289 278.71 397.219 283.19 397.219 C 287.67 397.219 289.89 401.289 289.89 405.359 C 289.89 409.429 287.67 413.499 283.19 413.499 C 278.71 413.499 276.49 409.429 276.49 405.359 Z M 292.22 405.359 C 292.22 399.879 289.04 395.249 283.19 395.249 C 277.34 395.249 274.16 399.879 274.16 405.359 C 274.16 410.839 277.34 415.469 283.19 415.469 C 289.04 415.469 292.22 410.839 292.22 405.359" id="path5004" style="fill: rgb(255, 255, 255);"/>
            <path d="M 303.07 412.949 L 299.29 412.949 L 299.29 395.809 L 296.96 395.809 L 296.96 412.949 L 293.7 412.949 L 293.7 414.909 L 296.96 414.909 L 296.96 416.649 C 296.92 419.949 297.85 422.239 301.59 422.239 C 302.25 422.239 302.81 422.199 303.55 422.089 L 303.55 420.099 C 302.92 420.199 302.4 420.279 301.85 420.279 C 299.26 420.279 299.33 418.649 299.29 416.579 L 299.29 414.909 L 303.07 414.909 L 303.07 412.949" id="path5006" style="fill: rgb(255, 255, 255);"/>
            <path d="M 335.35 414.249 C 334.46 418.319 331.09 420.649 327.24 420.649 C 320.25 420.649 317.29 414.809 317.29 409.029 C 317.29 403.259 320.25 397.409 327.24 397.409 C 332.13 397.409 335.24 401.179 335.72 405.879 L 338.24 405.879 C 337.53 399.409 333.43 395.259 327.24 395.259 C 318.91 395.259 314.77 401.809 314.77 409.029 C 314.77 416.249 318.91 422.799 327.24 422.799 C 332.24 422.799 337.2 419.799 337.87 414.249 L 335.35 414.249" id="path5008" style="fill: rgb(255, 255, 255);"/>
            <path d="M 343.01 405.359 C 343.01 401.289 345.23 397.219 349.71 397.219 C 354.19 397.219 356.41 401.289 356.41 405.359 C 356.41 409.429 354.19 413.499 349.71 413.499 C 345.23 413.499 343.01 409.429 343.01 405.359 Z M 358.74 405.359 C 358.74 399.879 355.56 395.249 349.71 395.249 C 343.86 395.249 340.68 399.879 340.68 405.359 C 340.68 410.839 343.86 415.469 349.71 415.469 C 355.56 415.469 358.74 410.839 358.74 405.359" id="path5010" style="fill: rgb(255, 255, 255);"/>
            <path d="M 362.26 422.239 L 364.59 422.239 L 364.59 395.809 L 362.26 395.809 L 362.26 422.239 Z" id="path5012" style="fill: rgb(255, 255, 255);"/>
            <path d="M 370.45 405.359 C 370.45 401.289 372.67 397.219 377.15 397.219 C 381.63 397.219 383.85 401.289 383.85 405.359 C 383.85 409.429 381.63 413.499 377.15 413.499 C 372.67 413.499 370.45 409.429 370.45 405.359 Z M 386.18 405.359 C 386.18 399.879 383 395.249 377.15 395.249 C 371.3 395.249 368.12 399.879 368.12 405.359 C 368.12 410.839 371.3 415.469 377.15 415.469 C 383 415.469 386.18 410.839 386.18 405.359" id="path5014" style="fill: rgb(255, 255, 255);"/>
            <path d="M 389.66 414.909 L 391.81 414.909 L 391.81 410.429 L 391.88 410.429 C 393.07 413.499 395.66 415.319 399.1 415.169 L 399.1 412.839 C 394.88 413.059 391.99 409.949 391.99 405.989 L 391.99 395.809 L 389.66 395.809 L 389.66 414.909" id="path5016" style="fill: rgb(255, 255, 255);"/>
            <path d="M 413.54 406.249 L 413.46 406.249 C 413.17 405.689 412.13 405.509 411.5 405.399 C 407.54 404.699 402.62 404.729 402.62 400.989 C 402.62 398.659 404.69 397.219 406.88 397.219 C 410.43 397.219 413.58 399.479 413.54 403.209 L 413.54 406.249 Z M 401.1 409.059 C 401.32 413.539 404.47 415.469 408.84 415.469 C 412.21 415.469 415.87 414.429 415.87 409.319 L 415.87 399.179 C 415.87 398.289 416.32 397.769 417.24 397.769 C 417.5 397.769 417.8 397.849 417.98 397.919 L 417.98 395.959 C 417.46 395.849 417.09 395.809 416.46 395.809 C 414.09 395.809 413.72 397.139 413.72 399.139 L 413.65 399.139 C 412.02 396.659 410.36 395.259 406.69 395.259 C 403.17 395.259 400.29 396.999 400.29 400.849 C 400.29 406.209 405.51 406.399 410.54 406.989 C 412.47 407.209 413.54 407.469 413.54 409.579 C 413.54 412.729 411.28 413.509 408.54 413.509 C 405.65 413.509 403.51 412.169 403.43 409.059 L 401.1 409.059" id="path5018" style="fill: rgb(255, 255, 255);"/>
            <path d="M 428.31 397.219 C 433.27 397.219 435.01 401.399 435.01 405.359 C 435.01 409.329 433.27 413.509 428.31 413.509 C 423.87 413.509 422.05 409.329 422.05 405.359 C 422.05 401.399 423.87 397.219 428.31 397.219 Z M 437.34 395.809 L 435.2 395.809 L 435.2 399.439 L 435.12 399.439 C 434.12 396.959 431.09 395.259 428.31 395.259 C 422.5 395.259 419.72 399.959 419.72 405.369 C 419.72 410.769 422.5 415.469 428.31 415.469 C 431.16 415.469 433.94 414.029 434.94 411.289 L 435.01 411.289 L 435.01 422.249 L 437.34 422.249 L 437.34 395.819" id="path5020" style="fill: rgb(255, 255, 255);"/>
            <path d="M 443.15 405.359 C 443.15 401.289 445.37 397.219 449.85 397.219 C 454.33 397.219 456.55 401.289 456.55 405.359 C 456.55 409.429 454.33 413.499 449.85 413.499 C 445.37 413.499 443.15 409.429 443.15 405.359 Z M 458.88 405.359 C 458.88 399.879 455.7 395.249 449.85 395.249 C 444 395.249 440.82 399.879 440.82 405.359 C 440.82 410.839 444 415.469 449.85 415.469 C 455.7 415.469 458.88 410.839 458.88 405.359" id="path5022" style="fill: rgb(255, 255, 255);"/>
            <path d="M 117.818 357.839 L 124.038 357.839 C 126.328 357.839 128.328 358.579 128.328 361.319 C 128.328 364.019 126.628 365.089 124.148 365.089 L 117.818 365.089 L 117.818 357.839 Z M 117.818 369.059 L 123.708 369.059 C 125.738 369.059 127.258 369.979 127.258 372.199 C 127.258 374.719 125.328 375.239 123.258 375.239 L 117.818 375.239 L 117.818 369.059 Z M 112.008 379.749 L 124.448 379.749 C 129.478 379.749 132.888 378.129 132.888 373.199 C 132.888 370.609 131.588 368.799 129.298 367.689 C 132.518 366.759 134.148 364.279 134.148 360.989 C 134.148 355.619 129.588 353.319 124.818 353.319 L 112.008 353.319 L 112.008 379.749" id="path5024" style="fill: rgb(255, 255, 255);"/>
            <path d="M 146.808 356.759 C 150.398 356.759 151.468 359.829 151.468 362.869 C 151.468 365.939 150.398 369.009 146.808 369.009 C 143.248 369.009 142.178 365.939 142.178 362.869 C 142.178 359.829 143.248 356.759 146.808 356.759 Z M 146.808 372.969 C 152.838 372.969 156.728 368.979 156.728 362.869 C 156.728 356.799 152.838 352.799 146.808 352.799 C 140.808 352.799 136.928 356.799 136.928 362.869 C 136.928 368.979 140.808 372.969 146.808 372.969" id="path5026" style="fill: rgb(255, 255, 255);"/>
            <path d="M 178.088 353.319 L 173.088 353.319 L 173.088 355.979 L 172.978 355.979 C 171.648 353.839 169.348 352.799 167.128 352.799 C 161.538 352.799 160.128 355.949 160.128 360.689 L 160.128 372.459 L 165.388 372.459 L 165.388 361.649 C 165.388 358.499 166.318 356.949 168.758 356.949 C 171.608 356.949 172.828 358.539 172.828 362.429 L 172.828 372.459 L 178.088 372.459 L 178.088 353.319" id="path5028" style="fill: rgb(255, 255, 255);"/>
            <path d="M 182.238 379.749 L 187.498 379.749 L 187.498 353.319 L 182.238 353.319 L 182.238 379.749 Z" id="path5030" style="fill: rgb(255, 255, 255);"/>
            <path d="M 200.708 369.019 C 197.268 369.019 196.078 366.059 196.078 362.909 C 196.078 359.909 197.448 356.769 200.708 356.769 C 204.188 356.769 205.228 359.799 205.228 362.949 C 205.228 366.059 204.118 369.019 200.708 369.019 Z M 205.298 355.769 L 205.228 355.769 C 203.998 353.689 201.858 352.809 199.408 352.809 C 193.638 352.809 190.828 357.769 190.828 363.059 C 190.828 368.209 193.678 372.979 199.298 372.979 C 201.558 372.979 203.778 372.019 204.968 370.129 L 205.038 370.129 L 205.038 379.759 L 210.298 379.759 L 210.298 353.329 L 205.298 353.329 L 205.298 355.769" id="path5032" style="fill: rgb(255, 255, 255);"/>
            <path d="M 227.138 364.939 C 226.658 367.609 225.508 369.009 222.958 369.009 C 219.618 369.009 218.658 366.419 218.588 364.939 L 227.138 364.939 Z M 218.588 361.609 C 218.738 358.279 220.368 356.759 223.288 356.759 C 225.398 356.759 227.098 358.059 227.438 359.239 L 232.058 359.239 C 230.578 354.719 227.438 352.799 223.098 352.799 C 217.068 352.799 213.328 356.939 213.328 362.869 C 213.328 368.599 217.288 372.969 223.098 372.969 C 229.618 372.969 232.768 367.489 232.398 361.609 L 218.588 361.609" id="path5034" style="fill: rgb(255, 255, 255);"/>
            <path d="M 235.508 372.459 L 240.508 372.459 L 240.508 368.909 L 240.578 368.909 C 241.538 371.309 244.138 372.979 246.688 372.979 C 247.058 372.979 247.498 372.899 247.838 372.789 L 247.838 367.909 C 247.358 368.019 246.578 368.089 245.948 368.089 C 242.098 368.089 240.768 365.319 240.768 361.949 L 240.768 353.319 L 235.508 353.319 L 235.508 372.459" id="path5036" style="fill: rgb(255, 255, 255);"/>
          </g>
          <path d="M 68.95 431 L 68.95 441.58 L 56.34 454.22 L 12.65 454.22 L 0 441.59 L 0 397.97 L 12.65 385.35 L 26.53 385.35 L 26.53 374.74 L 39.28 362.09 L 76.14 362.09 L 88.93 374.72 L 88.93 408.5 L 95.44 408.5 L 95.44 431 L 68.95 431" fill="#cfb87c" id="path5038"/>
          <path d="M 55.8 452.91 L 67.64 441.04 L 67.64 429.69 L 94.12 429.69 L 94.12 409.81 L 87.61 409.81 L 87.61 375.27 L 75.61 363.4 L 39.81 363.4 L 27.84 375.27 L 27.84 386.65 L 13.19 386.65 L 1.31 398.52 L 1.31 441.04 L 13.19 452.91 L 55.8 452.91" id="path5040"/>
          <path d="M 14.55 389.93 L 31.11 389.93 L 31.11 376.63 L 41.16 366.68 L 74.26 366.68 L 84.34 376.63 L 84.34 413.09 L 90.85 413.09 L 90.85 426.41 L 70.87 426.41 L 70.87 379.98 L 44.43 379.98 L 44.43 389.93 L 54.44 389.93 L 64.36 399.87 L 64.36 413.09 L 51.05 413.09 L 51.05 403.22 L 44.43 403.22 L 44.43 426.41 L 24.51 426.41 L 24.51 413.09 L 31.11 413.09 L 31.11 403.22 L 17.87 403.22 L 17.87 436.44 L 51.05 436.44 L 51.05 426.41 L 64.36 426.41 L 64.36 439.68 L 54.44 449.63 L 14.55 449.63 L 4.58 439.68 L 4.58 399.87 L 14.55 389.93" fill="#fff" id="path5042"/>
          <path d="M 42.79 391.57 L 53.76 391.57 L 62.72 400.55 L 62.72 411.45 L 52.69 411.45 L 52.69 401.58 L 42.79 401.58 L 42.79 424.77 L 26.14 424.77 L 26.14 414.72 L 32.75 414.72 L 32.75 401.58 L 16.24 401.58 L 16.24 438.07 L 52.69 438.07 L 52.69 428.05 L 62.72 428.05 L 62.72 439 L 53.76 447.99 L 15.23 447.99 L 6.22 439 L 6.22 400.55 L 15.22 391.57 L 32.75 391.57 L 32.75 377.32 L 41.84 368.31 L 73.59 368.31 L 82.7 377.33 L 82.7 414.72 L 89.21 414.72 L 89.21 424.77 L 72.51 424.77 L 72.51 378.35 L 42.79 378.35 L 42.79 391.57" fill="#cfb87c" id="path5044"/>
        </g>
      </g>
    </g>
  </g>
</svg>