<?xml version="1.0" encoding="utf-8"?>
<svg width="300.00003" height="45.197942" version="1.1" xmlns="http://www.w3.org/2000/svg">
  <defs id="defs4968">
    <clipPath clipPathUnits="userSpaceOnUse" id="clipPath4980">
      <path d="m0,350l612,0l0,92l-612,0l0,-92z" id="path4982"/>
    </clipPath>
  </defs>
  <g class="layer">
    <title>Layer 1</title>
    <g id="g4972" transform="matrix(1.25 0 0 -1.25 -232.19 517.68)">
      <g clip-path="url(#clipPath4980)" id="g4978">
        <g id="g5618" transform="matrix(.39247 0 0 .39247 185.75 240.62)">
          <g id="svg_1">
            <path d="m114.84,418.01l2.52,0l0,-16.36c-0.04,-6.15 2.88,-8.48 7.73,-8.48c4.89,0 7.82,2.33 7.78,8.48l0,16.36l2.51,0l0,-16.92c0,-5.44 -2.92,-10.07 -10.29,-10.07c-7.33,0 -10.25,4.63 -10.25,10.07l0,16.92" id="path4984" style="fill: rgb(255, 255, 255);"/>
            <path d="m139.98,410.68l2.33,0l0,-3.29l0.08,0c0.85,2.29 3.4,3.85 6.1,3.85c5.37,0 7,-2.82 7,-7.37l0,-12.29l-2.33,0l0,11.92c0,3.29 -1.08,5.77 -4.85,5.77c-3.7,0 -5.92,-2.81 -6,-6.55l0,-11.14l-2.33,0l0,19.1" id="path4986" style="fill: rgb(255, 255, 255);"/>
            <path d="m159.93,410.68l2.33,0l0,-19.1l-2.33,0l0,19.1zm0,7.33l2.33,0l0,-3.74l-2.33,0l0,3.74z" id="path4988" style="fill: rgb(255, 255, 255);"/>
            <path d="m164.6,410.68l2.59,0l6,-16.77l0.07,0l5.93,16.77l2.4,0l-7.14,-19.1l-2.48,0l-7.37,19.1" id="path4990" style="fill: rgb(255, 255, 255);"/>
            <path d="m197.62,402.46c-0.11,3.52 -2.3,6.81 -6.07,6.81c-3.81,0 -5.92,-3.33 -6.29,-6.81l12.36,0zm-12.36,-1.96c0.03,-3.41 1.81,-7.52 6.29,-7.52c3.41,0 5.26,2 6,4.89l2.33,0c-1,-4.33 -3.52,-6.85 -8.33,-6.85c-6.07,0 -8.63,4.67 -8.63,10.11c0,5.03 2.56,10.1 8.63,10.1c6.14,0 8.59,-5.36 8.4,-10.73l-14.69,0" id="path4992" style="fill: rgb(255, 255, 255);"/>
            <path d="m203.1,410.68l2.15,0l0,-4.48l0.07,0c1.19,3.07 3.78,4.89 7.22,4.74l0,-2.33c-4.22,0.22 -7.11,-2.89 -7.11,-6.85l0,-10.18l-2.33,0l0,19.1" id="path4994" style="fill: rgb(255, 255, 255);"/>
            <path d="m226.2,405.09c-0.11,2.89 -2.33,4.18 -5,4.18c-2.07,0 -4.51,-0.81 -4.51,-3.29c0,-2.07 2.36,-2.82 3.96,-3.22l3.11,-0.71c2.66,-0.4 5.44,-1.96 5.44,-5.29c0,-4.14 -4.11,-5.74 -7.66,-5.74c-4.45,0 -7.48,2.08 -7.85,6.74l2.33,0c0.18,-3.15 2.52,-4.78 5.63,-4.78c2.18,0 5.22,0.97 5.22,3.63c0,2.22 -2.08,2.97 -4.19,3.48l-3,0.67c-3.03,0.81 -5.33,1.85 -5.33,5.11c0,3.88 3.82,5.37 7.19,5.37c3.81,0 6.84,-2 6.99,-6.15l-2.33,0" id="path4996" style="fill: rgb(255, 255, 255);"/>
            <path d="m232.61,410.68l2.33,0l0,-19.1l-2.33,0l0,19.1zm0,7.33l2.33,0l0,-3.74l-2.33,0l0,3.74z" id="path4998" style="fill: rgb(255, 255, 255);"/>
            <path d="m243.12,410.68l3.89,0l0,-1.96l-3.89,0l0,-12.88c0,-1.52 0.22,-2.41 1.89,-2.52c0.66,0 1.33,0.04 2,0.11l0,-2c-0.71,0 -1.37,-0.07 -2.08,-0.07c-3.11,0 -4.18,1.03 -4.14,4.29l0,13.07l-3.34,0l0,1.96l3.34,0l0,5.74l2.33,0l0,-5.74" id="path5000" style="fill: rgb(255, 255, 255);"/>
            <path d="m248.23,410.68l2.48,0l6.29,-16.29l5.89,16.29l2.33,0l-8.29,-22.03c-1.33,-3.22 -2.11,-4.14 -5.04,-4.14c-0.92,0.03 -1.4,0.03 -1.77,0.18l0,1.97c0.55,-0.12 1.07,-0.19 1.59,-0.19c2.07,0 2.55,1.22 3.33,3l0.82,2.18l-7.63,19.03" id="path5002" style="fill: rgb(255, 255, 255);"/>
            <path d="m279.18,401.13c0,-4.07 2.22,-8.14 6.7,-8.14c4.48,0 6.7,4.07 6.7,8.14c0,4.07 -2.22,8.14 -6.7,8.14c-4.48,0 -6.7,-4.07 -6.7,-8.14zm15.73,0c0,-5.48 -3.18,-10.11 -9.03,-10.11c-5.85,0 -9.03,4.63 -9.03,10.11c0,5.48 3.18,10.11 9.03,10.11c5.85,0 9.03,-4.63 9.03,-10.11" id="path5004" style="fill: rgb(255, 255, 255);"/>
            <path d="m305.76,408.72l-3.78,0l0,-17.14l-2.33,0l0,17.14l-3.26,0l0,1.96l3.26,0l0,1.74c-0.04,3.3 0.89,5.59 4.63,5.59c0.66,0 1.22,-0.04 1.96,-0.15l0,-1.99c-0.63,0.1 -1.15,0.18 -1.7,0.18c-2.59,0 -2.52,-1.63 -2.56,-3.7l0,-1.67l3.78,0l0,-1.96" id="path5006" style="fill: rgb(255, 255, 255);"/>
            <path d="m338.04,410.02c-0.89,4.07 -4.26,6.4 -8.11,6.4c-6.99,0 -9.95,-5.84 -9.95,-11.62c0,-5.77 2.96,-11.62 9.95,-11.62c4.89,0 8,3.77 8.48,8.47l2.52,0c-0.71,-6.47 -4.81,-10.62 -11,-10.62c-8.33,0 -12.47,6.55 -12.47,13.77c0,7.22 4.14,13.77 12.47,13.77c5,0 9.96,-3 10.63,-8.55l-2.52,0" id="path5008" style="fill: rgb(255, 255, 255);"/>
            <path d="m345.7,401.13c0,-4.07 2.22,-8.14 6.7,-8.14c4.48,0 6.7,4.07 6.7,8.14c0,4.07 -2.22,8.14 -6.7,8.14c-4.48,0 -6.7,-4.07 -6.7,-8.14zm15.73,0c0,-5.48 -3.18,-10.11 -9.03,-10.11s-9.03,4.63 -9.03,10.11c0,5.48 3.18,10.11 9.03,10.11s9.03,-4.63 9.03,-10.11" id="path5010" style="fill: rgb(255, 255, 255);"/>
            <path d="m364.95,418.01l2.33,0l0,-26.43l-2.33,0l0,26.43z" id="path5012" style="fill: rgb(255, 255, 255);"/>
            <path d="m373.14,401.13c0,-4.07 2.22,-8.14 6.7,-8.14c4.48,0 6.7,4.07 6.7,8.14c0,4.07 -2.22,8.14 -6.7,8.14c-4.48,0 -6.7,-4.07 -6.7,-8.14zm15.73,0c0,-5.48 -3.18,-10.11 -9.03,-10.11c-5.85,0 -9.03,4.63 -9.03,10.11c0,5.48 3.18,10.11 9.03,10.11c5.85,0 9.03,-4.63 9.03,-10.11" id="path5014" style="fill: rgb(255, 255, 255);"/>
            <path d="m392.35,410.68l2.15,0l0,-4.48l0.07,0c1.19,3.07 3.78,4.89 7.22,4.74l0,-2.33c-4.22,0.22 -7.11,-2.89 -7.11,-6.85l0,-10.18l-2.33,0l0,19.1" id="path5016" style="fill: rgb(255, 255, 255);"/>
            <path d="m416.23,402.02l-0.08,0c-0.29,-0.56 -1.33,-0.74 -1.96,-0.85c-3.96,-0.7 -8.88,-0.67 -8.88,-4.41c0,-2.33 2.07,-3.77 4.26,-3.77c3.55,0 6.7,2.26 6.66,5.99l0,3.04zm-12.44,2.81c0.22,4.48 3.37,6.41 7.74,6.41c3.37,0 7.03,-1.04 7.03,-6.15l0,-10.14c0,-0.89 0.45,-1.41 1.37,-1.41c0.26,0 0.56,0.08 0.74,0.15l0,-1.96c-0.52,-0.11 -0.89,-0.15 -1.52,-0.15c-2.37,0 -2.74,1.33 -2.74,3.33l-0.07,0c-1.63,-2.48 -3.29,-3.88 -6.96,-3.88c-3.52,0 -6.4,1.74 -6.4,5.59c0,5.36 5.22,5.55 10.25,6.14c1.93,0.22 3,0.48 3,2.59c0,3.15 -2.26,3.93 -5,3.93c-2.89,0 -5.03,-1.34 -5.11,-4.45l-2.33,0" id="path5018" style="fill: rgb(255, 255, 255);"/>
            <path d="m431,392.99c4.96,0 6.7,4.18 6.7,8.14c0,3.97 -1.74,8.15 -6.7,8.15c-4.44,0 -6.26,-4.18 -6.26,-8.15c0,-3.96 1.82,-8.14 6.26,-8.14zm9.03,-1.41l-2.14,0l0,3.63l-0.08,0c-1,-2.48 -4.03,-4.18 -6.81,-4.18c-5.81,0 -8.59,4.7 -8.59,10.11c0,5.4 2.78,10.1 8.59,10.1c2.85,0 5.63,-1.44 6.63,-4.18l0.07,0l0,10.96l2.33,0l0,-26.43" id="path5020" style="fill: rgb(255, 255, 255);"/>
            <path d="m445.84,401.13c0,-4.07 2.22,-8.14 6.7,-8.14c4.48,0 6.7,4.07 6.7,8.14c0,4.07 -2.22,8.14 -6.7,8.14c-4.48,0 -6.7,-4.07 -6.7,-8.14zm15.73,0c0,-5.48 -3.18,-10.11 -9.03,-10.11c-5.85,0 -9.03,4.63 -9.03,10.11c0,5.48 3.18,10.11 9.03,10.11c5.85,0 9.03,-4.63 9.03,-10.11" id="path5022" style="fill: rgb(255, 255, 255);"/>
            <path d="m481.49,396.1l6.22,0c2.29,0 4.29,0.74 4.29,3.48c0,2.7 -1.7,3.77 -4.18,3.77l-6.33,0l0,-7.25zm0,11.22l5.89,0c2.03,0 3.55,0.92 3.55,3.14c0,2.52 -1.93,3.04 -4,3.04l-5.44,0l0,-6.18zm-5.81,10.69l12.44,0c5.03,0 8.44,-1.62 8.44,-6.55c0,-2.59 -1.3,-4.4 -3.59,-5.51c3.22,-0.93 4.85,-3.41 4.85,-6.7c0,-5.37 -4.56,-7.67 -9.33,-7.67l-12.81,0l0,26.43" id="path5024" style="fill: rgb(255, 255, 255);"/>
            <path d="m510.48,395.02c3.59,0 4.66,3.07 4.66,6.11c0,3.07 -1.07,6.14 -4.66,6.14c-3.56,0 -4.63,-3.07 -4.63,-6.14c0,-3.04 1.07,-6.11 4.63,-6.11zm0,16.21c6.03,0 9.92,-3.99 9.92,-10.1c0,-6.07 -3.89,-10.07 -9.92,-10.07c-6,0 -9.88,4 -9.88,10.07c0,6.11 3.88,10.1 9.88,10.1" id="path5026" style="fill: rgb(255, 255, 255);"/>
            <path d="m541.76,391.58l-5,0l0,2.66l-0.11,0c-1.33,-2.14 -3.63,-3.18 -5.85,-3.18c-5.59,0 -7,3.15 -7,7.89l0,11.77l5.26,0l0,-10.81c0,-3.15 0.93,-4.7 3.37,-4.7c2.85,0 4.07,1.59 4.07,5.48l0,10.03l5.26,0l0,-19.14" id="path5028" style="fill: rgb(255, 255, 255);"/>
            <path d="m545.91,418.01l5.26,0l0,-26.43l-5.26,0l0,26.43z" id="path5030" style="fill: rgb(255, 255, 255);"/>
            <path d="m564.38,407.28c-3.44,0 -4.63,-2.96 -4.63,-6.11c0,-3 1.37,-6.14 4.63,-6.14c3.48,0 4.52,3.03 4.52,6.18c0,3.11 -1.11,6.07 -4.52,6.07zm4.59,-13.25l-0.07,0c-1.23,-2.08 -3.37,-2.96 -5.82,-2.96c-5.77,0 -8.58,4.96 -8.58,10.25c0,5.15 2.85,9.92 8.47,9.92c2.26,0 4.48,-0.96 5.67,-2.85l0.07,0l0,9.63l5.26,0l0,-26.43l-5,0l0,2.44" id="path5032" style="fill: rgb(255, 255, 255);"/>
            <path d="m590.81,403.2c-0.48,2.67 -1.63,4.07 -4.18,4.07c-3.34,0 -4.3,-2.59 -4.37,-4.07l8.55,0zm-8.55,-3.33c0.15,-3.33 1.78,-4.85 4.7,-4.85c2.11,0 3.81,1.3 4.15,2.48l4.62,0c-1.48,-4.52 -4.62,-6.44 -8.96,-6.44c-6.03,0 -9.77,4.14 -9.77,10.07c0,5.73 3.96,10.1 9.77,10.1c6.52,0 9.67,-5.48 9.3,-11.36l-13.81,0" id="path5034" style="fill: rgb(255, 255, 255);"/>
            <path d="m599.18,410.72l5,0l0,-3.55l0.07,0c0.96,2.4 3.56,4.07 6.11,4.07c0.37,0 0.81,-0.08 1.15,-0.19l0,-4.88c-0.48,0.11 -1.26,0.18 -1.89,0.18c-3.85,0 -5.18,-2.77 -5.18,-6.14l0,-8.63l-5.26,0l0,19.14" id="path5036" style="fill: rgb(255, 255, 255);"/>
          </g>
          <path d="m68.95,418.91l0,10.58l-12.61,12.64l-43.69,0l-12.65,-12.63l0,-43.62l12.65,-12.62l13.88,0l0,-10.61l12.75,-12.65l36.86,0l12.79,12.63l0,33.78l6.51,0l0,22.5l-26.49,0" fill="#cfb87c" id="path5038"/>
          <path d="m55.8,440.82l11.84,-11.87l0,-11.35l26.48,0l0,-19.88l-6.51,0l0,-34.54l-12,-11.87l-35.8,0l-11.97,11.87l0,11.38l-14.65,0l-11.88,11.87l0,42.52l11.88,11.87l42.61,0" id="path5040"/>
          <path d="m14.55,377.84l16.56,0l0,-13.3l10.05,-9.95l33.1,0l10.08,9.95l0,36.46l6.51,0l0,13.32l-19.98,0l0,-46.43l-26.44,0l0,9.95l10.01,0l9.92,9.94l0,13.22l-13.31,0l0,-9.87l-6.62,0l0,23.19l-19.92,0l0,-13.32l6.6,0l0,-9.87l-13.24,0l0,33.22l33.18,0l0,-10.03l13.31,0l0,13.27l-9.92,9.95l-39.89,0l-9.97,-9.95l0,-39.81l9.97,-9.94" fill="#fff" id="path5042"/>
          <path d="m42.79,379.48l10.97,0l8.96,8.98l0,10.9l-10.03,0l0,-9.87l-9.9,0l0,23.19l-16.65,0l0,-10.05l6.61,0l0,-13.14l-16.51,0l0,36.49l36.45,0l0,-10.02l10.03,0l0,10.95l-8.96,8.99l-38.53,0l-9.01,-8.99l0,-38.45l9,-8.98l17.53,0l0,-14.25l9.09,-9.01l31.75,0l9.11,9.02l0,37.39l6.51,0l0,10.05l-16.7,0l0,-46.42l-29.72,0l0,13.22" fill="#cfb87c" id="path5044"/>
        </g>
      </g>
    </g>
  </g>
</svg>