<?xml version="1.0"?>
<svg width="120" height="48" xmlns="http://www.w3.org/2000/svg" xmlns:svg="http://www.w3.org/2000/svg">
 <g class="layer">
  <title>Layer 1</title>
  <path d="m6.3,15.475l5.7,0l0,5.63l5.213,0l0,-5.63l5.7,0l0,17.05l-5.7,0l0,-5.7l-5.213,0l0,5.7l-5.7,0l0,-17.05zm24.107,5.655l-5.027,0l0,-5.654l15.736,0l0,5.654l-5.02,0l0,11.397l-5.7,0l0,-11.397l0.011,0zm13.207,-5.655l5.943,0l3.656,6l3.652,-6l5.935,0l0,17.05l-5.676,0l0,-8.452l-3.92,6.063l-0.098,0l-3.906,-6.062l0,8.452l-5.576,0l-0.01,-17.051zm22.03,0l5.7,0l0,11.425l8.015,0l0,5.636l-13.714,0l-0.001,-17.061z" fill="#fff" id="svg_1"/>
  <path d="m82.07,6.06l31.637,0l-2.882,32.288l-12.955,3.592l-12.92,-3.587l-2.88,-32.293z" fill="#e44d26" id="svg_2"/>
  <path d="m108.36,36.293l2.463,-27.592l-12.923,0l0,30.494l10.46,-2.902z" fill="#f16529" id="svg_3"/>
  <path d="m92.65,20.678l-0.362,-4.056l5.612,0l0,-3.96l-9.93,0l1.068,11.977l8.862,0l0,-3.96l-5.25,-0.001zm-3.446,5.942l0.555,6.22l8.113,2.252l0.018,-0.005l0,-4.12l-0.017,0.005l-4.4,-1.2l-0.282,-3.16l-2.143,0l-1.844,0.008z" fill="#ebebeb" id="svg_4"/>
  <path d="m106.986,21.74l0.097,-1.064l-9.206,0l0,3.96l4.877,0l-0.46,5.137l-4.417,1.192l0,4.12l8.12,-2.25l0.06,-0.67l0.929,-10.425zm-9.1,-5.118l9.567,0l0.355,-3.97l-9.922,0l0,3.95l0,0.02z" fill="#fff" id="svg_5"/>
 </g>
</svg>