<?xml version="1.0" encoding="utf-8"?>
<svg version="1.1" id="svg8093" width="500px" height="140" viewBox="-3.567789 -3.567789 348 126.061878" xmlns="http://www.w3.org/2000/svg">
  <defs id="defs8095">
    <linearGradient id="linearGradient8019" spreadMethod="pad" gradientTransform="matrix(1.5697812,0,0,1.5697812,-0.00505,-0.0021)" gradientUnits="userSpaceOnUse" y2="44.671875" x2="54.390625" y1="57.471561" x1="41.590939">
      <stop id="stop8021" offset="0" style="stop-opacity:1;stop-color:#0052cc"/>
      <stop id="stop8023" offset="1" style="stop-opacity:1;stop-color:#2684ff"/>
    </linearGradient>
    <linearGradient id="linearGradient8009" spreadMethod="pad" gradientTransform="matrix(1.5697812,0,0,1.5697812,-0.00505,-0.0021)" gradientUnits="userSpaceOnUse" y2="30.988281" x2="19" y1="18.166172" x1="31.825312">
      <stop id="stop8011" offset="0" style="stop-opacity:1;stop-color:#0052cc"/>
      <stop id="stop8013" offset="1" style="stop-opacity:1;stop-color:#2684ff"/>
    </linearGradient>
  </defs>
  <path id="path7981" d="M 205.788 9.262 C 203.84 9.333 201.979 10.136 200.591 11.53 C 198.998 13.116 198.179 15.322 198.335 17.563 C 198.335 20.527 199.912 23.268 202.479 24.746 C 205.043 26.231 208.207 26.231 210.77 24.746 C 213.334 23.268 214.918 20.527 214.913 17.563 C 215.073 15.322 214.252 13.116 212.661 11.53 C 211.074 9.937 208.867 9.116 206.626 9.278 C 206.345 9.258 206.066 9.252 205.788 9.262 Z M 171.542 14.125 L 171.573 78.061 C 171.573 87.12 167.943 93.399 157.446 93.399 C 153.051 93.433 148.695 92.633 144.604 91.045 L 144.604 103.129 C 149.403 104.766 154.447 105.561 159.516 105.489 C 176.66 105.489 183.975 93.95 183.975 77.231 L 183.975 14.125 L 171.542 14.125 Z M 300.136 34.411 C 280.796 34.411 271.128 50.845 271.128 70.323 C 271.128 90.635 280.39 106.241 298.755 106.241 C 309.385 106.241 317.672 101.55 322.1 92.428 L 322.114 104.86 L 333.999 104.86 L 333.999 35.792 L 322.114 35.792 L 322.114 47.94 C 317.954 38.96 310.215 34.411 300.136 34.411 Z M 263.985 34.737 C 252.103 34.721 245.731 40.299 241.977 47.94 L 241.977 35.792 L 230.376 35.792 L 230.376 104.907 L 241.977 104.907 L 241.977 64.092 C 241.977 49.463 251.239 44.849 266.434 46.417 L 266.434 34.815 C 265.592 34.763 264.777 34.738 263.985 34.737 Z M 200.552 35.808 L 200.552 104.874 L 212.431 104.874 L 212.431 35.807 L 200.552 35.807 L 200.552 35.808 Z M 303.261 45.397 C 313.403 45.397 322.1 52.165 322.1 67.501 L 322.1 73.087 C 322.1 88.417 312.578 95.186 301.944 95.192 C 289.634 95.192 283.012 86.9 282.948 70.259 C 282.948 54.234 289.853 45.397 303.261 45.397 Z" style="fill:#fff;fill-opacity:1;fill-rule:nonzero;stroke:none"/>
  <path id="path8005" style="fill:#2684ff;fill-opacity:1;fill-rule:nonzero;stroke:none" d="M 113.64745,56.1338 62.46995,4.9563 57.50995,0 1.37625,56.1338 c -1.835,1.84 -1.835,4.8187 0,6.655 l 35.1962,35.195 20.9375,20.9425 56.1375,-56.1375 c 1.8363,-1.8363 1.8363,-4.815 0,-6.655 z M 57.50995,77.0413 39.93125,59.4638 57.50995,41.88 75.09245,59.4638 57.50995,77.0413 Z"/>
  <path d="M 57.50995,41.88 C 46.00125,30.3663 45.94245,11.7188 57.38745,0.1375 L 18.91125,38.5988 39.85375,59.5413 57.50995,41.88 Z" style="fill:url(#linearGradient8009);fill-opacity:1;fill-rule:nonzero;stroke:none" id="path8015"/>
  <path d="m 75.14125,59.4138 -17.6313,17.6275 c 5.5563,5.5512 8.6813,13.0862 8.6813,20.9425 0,7.8562 -3.125,15.3862 -8.6813,20.9425 l 38.5688,-38.57 -20.9375,-20.9425 z" style="fill:url(#linearGradient8019);fill-opacity:1;fill-rule:nonzero;stroke:none" id="path8025"/>
</svg>