<?xml version="1.0"?>
<svg width="116" height="40" xmlns="http://www.w3.org/2000/svg" xmlns:svg="http://www.w3.org/2000/svg">
 <style>
  <![CDATA[.D{fill:#2f406a}.E{fill:#2379bd}.F{fill:#03afef}.G{fill:#ffffff}]]>
 </style>
 <g class="layer">
  <title>Layer 1</title>
  <path class="D" d="m29.554,13.517l0,12.9l-10.964,6.438l-0.1,0.092l0,4.866l0.1,0.092l15.435,-8.916l0,-17.979l-0.147,0l-4.352,2.433l0,0.1" id="svg_1"/>
  <path class="E" d="m7.59,26.52l11.02,6.38l0,5.004l-15.564,-8.952l0,-17.904l0.156,0l4.343,2.525l0.046,0.147l0,12.855" fill="black" id="svg_2"/>
  <path class="F" d="m7.59,13.692l-4.59,-2.644l15.554,-8.952l15.472,8.916l-4.472,2.507l-11.018,-6.27l-10.963,6.427" fill="black" id="svg_3"/>
  <path class="D" d="m18.398,25.04l-0.12,-0.12l0,-4.84l0.12,-0.064l0,-0.12l4.15,-2.424l0.13,0l0,4.995l-4.306,2.553" id="svg_4"/>
  <path class="E" d="m14.018,22.654l0,-5.188l0.12,0l4.224,2.46l0,5.124l-4.38,-2.397" id="svg_5"/>
  <path class="F" d="m18.325,14.922l-4.306,2.553l4.379,2.525l4.306,-2.516l-4.38,-2.59" id="svg_6"/>
  <path class="D" d="m13.036,28.21l-0.12,-0.12l0,-4.85l0.12,-0.064l0,-0.12l4.15,-2.424l0.13,0l0,4.995l-4.306,2.553" id="svg_7"/>
  <path class="E" d="m8.656,25.812l0,-5.188l0.12,0l4.224,2.461l0,5.124l-4.343,-2.397" id="svg_8"/>
  <path class="F" d="m12.972,18.08l-4.316,2.543l4.38,2.553l4.306,-2.516l-4.38,-2.59" id="svg_9"/>
  <path class="D" d="m24.146,28.328l-0.12,-0.12l0,-4.848l0.12,-0.064l0,-0.12l4.15,-2.424l0.13,0l0,4.995l-4.306,2.553" id="svg_10"/>
  <path class="E" d="m19.766,25.932l0,-5.188l0.138,0l4.224,2.46l0,5.124l-4.38,-2.397" id="svg_11"/>
  <path class="F" d="m24.073,18.164l-4.306,2.553l4.38,2.553l4.306,-2.516l-4.38,-2.59" id="svg_12"/>
  <path class="D" d="m18.784,31.487l-0.12,-0.12l0,-4.847l0.12,-0.064l0,-0.12l4.15,-2.424l0.13,0l0,4.995l-4.306,2.553" id="svg_13"/>
  <path class="E" d="m14.395,29.1l0,-5.18l0.12,0l4.224,2.46l0,5.124l-4.344,-2.404" id="svg_14"/>
  <path class="F" d="m18.7,21.36l-4.316,2.553l4.39,2.516l4.306,-2.516l-4.38,-2.553" id="svg_15"/>
  <path class="D" d="m18.398,18.164l-0.12,-0.12l0,-4.83l0.12,-0.064l0,-0.12l4.15,-2.424l0.13,0l0,4.995l-4.28,2.562" id="svg_16"/>
  <path class="E" d="m14.018,15.785l0,-5.188l0.12,0l4.224,2.46l0,5.105l-4.38,-2.397" id="svg_17"/>
  <path class="F" d="m18.325,8.063l-4.306,2.553l4.38,2.553l4.306,-2.516l-4.38,-2.59" fill="black" id="svg_18"/>
  <path class="D" d="m13.036,21.33l-0.12,-0.12l0,-4.885l0.12,-0.064l0,-0.12l4.15,-2.424l0.13,0l0,4.995l-4.306,2.553" id="svg_19"/>
  <path class="E" d="m8.656,18.944l0,-5.188l0.12,0l4.224,2.461l0,5.124l-4.343,-2.397" id="svg_20"/>
  <path class="F" d="m12.972,11.213l-4.316,2.543l4.38,2.57l4.306,-2.516l-4.38,-2.59" id="svg_21"/>
  <path class="D" d="m24.146,21.45l-0.12,-0.12l0,-4.84l0.12,-0.064l0,-0.12l4.15,-2.424l0.13,0l0,4.995l-4.306,2.553" id="svg_22"/>
  <path class="E" d="m19.766,19.082l0,-5.206l0.138,0l4.205,2.452l0,5.124l-4.343,-2.37" id="svg_23"/>
  <path class="F" d="m24.073,11.332l-4.306,2.553l4.38,2.553l4.306,-2.516l-4.38,-2.59" id="svg_24"/>
  <path class="D" d="m18.784,24.59l-0.12,-0.12l0,-4.82l0.12,-0.064l0,-0.12l4.15,-2.424l0.13,0l0,4.995l-4.28,2.553" id="svg_25"/>
  <path class="E" d="m14.395,22.222l0,-5.188l0.12,0l4.224,2.46l0,5.096l-4.343,-2.37" id="svg_26"/>
  <path class="F" d="m18.7,14.49l-4.316,2.543l4.38,2.553l4.306,-2.516l-4.37,-2.58" id="svg_27"/>
  <path class="G" d="m41.776,13.17q-2.892,0 -2.892,2.176c-0.086,0.634 0.165,1.267 0.66,1.67a8.87,8.87 0 0 0 2.7,0.918a6.86,6.86 0 0 1 2.883,1.148a2.98,2.98 0 0 1 0.845,2.378q0,4.104 -4.26,4.104a23.96,23.96 0 0 1 -3.526,-0.33l-0.698,-0.092l0.156,-1.23c1.323,0.197 2.657,0.314 3.994,0.35q2.856,0 2.856,-2.68a1.84,1.84 0 0 0 -0.624,-1.58a6.14,6.14 0 0 0 -2.34,-0.8c-1.146,-0.173 -2.24,-0.596 -3.205,-1.24c-0.702,-0.655 -1.06,-1.597 -0.973,-2.553q0,-3.6 4.297,-3.6c1.132,0.014 2.26,0.1 3.38,0.285l0.652,0.1l-0.064,1.285a36.25,36.25 0 0 0 -3.838,-0.321l-0.003,0.012zm13.074,11.045l0.56,-0.055l0,1.14a27.74,27.74 0 0 1 -3.765,0.312a3.39,3.39 0 0 1 -2.947,-1.203c-0.666,-1.13 -0.97,-2.438 -0.872,-3.746q0,-5.068 4.03,-5.068a3.67,3.67 0 0 1 2.938,1.074a5.08,5.08 0 0 1 0.964,3.425l-0.046,1.093l-6.382,0a3.97,3.97 0 0 0 0.578,2.37a2.37,2.37 0 0 0 2.011,0.771q1.442,0 2.93,-0.1l0.001,-0.013zm-0.523,-4.215c0.078,-0.875 -0.12,-1.75 -0.57,-2.507c-0.46,-0.522 -1.142,-0.795 -1.836,-0.735a2.37,2.37 0 0 0 -1.928,0.771a3.91,3.91 0 0 0 -0.707,2.47l5.041,0.001zm6.896,5.6a3.23,3.23 0 0 1 -2.755,-1.139a6.7,6.7 0 0 1 -0.836,-3.856c-0.127,-1.37 0.227,-2.74 1,-3.875q1,-1.157 3.544,-1.157l3.223,0.193l0,13.92l-1.423,0l0,-4.72c-0.86,0.416 -1.8,0.633 -2.755,0.634l0.002,0zm0.918,-8.778c-0.92,-0.115 -1.84,0.228 -2.46,0.918a5.04,5.04 0 0 0 -0.643,2.883a5.64,5.64 0 0 0 0.533,2.837a1.93,1.93 0 0 0 1.781,0.854c0.76,-0.001 1.514,-0.145 2.222,-0.422l0.35,-0.138l0,-6.814q-1.166,-0.1 -1.78,-0.1l-0.003,-0.018zm12.047,-1.055l1.45,0l0,9.64l-1.45,0l0,-0.67a5.51,5.51 0 0 1 -2.865,0.863q-1.965,0 -2.617,-1.02c-0.53,-1.186 -0.75,-2.488 -0.643,-3.783l0,-5.032l1.423,0l0,5.013a7.09,7.09 0 0 0 0.367,2.819q0.367,0.716 1.662,0.716c0.438,-0.002 0.874,-0.063 1.295,-0.184a6.01,6.01 0 0 0 1,-0.358l0.35,-0.174l0.028,-7.83zm10.78,8.448l0.56,-0.055l0,1.14a27.74,27.74 0 0 1 -3.765,0.312a3.39,3.39 0 0 1 -2.947,-1.203c-0.666,-1.13 -0.97,-2.438 -0.872,-3.746q0,-5.068 4.03,-5.068c1.084,-0.085 2.15,0.315 2.9,1.093a5.08,5.08 0 0 1 0.964,3.425l-0.073,1.102l-6.315,0a3.97,3.97 0 0 0 0.578,2.37a2.37,2.37 0 0 0 2.011,0.771q1.442,-0.028 2.93,-0.138l-0.001,-0.003zm-0.523,-4.215c0.078,-0.875 -0.12,-1.75 -0.57,-2.507c-0.46,-0.522 -1.142,-0.795 -1.836,-0.735a2.37,2.37 0 0 0 -1.928,0.771a3.89,3.89 0 0 0 -0.68,2.47l5.014,0.001zm3.82,5.408l0,-13.846l1.423,0l0,13.846l-1.423,0zm4.333,-11.835l0,-1.673l1.442,0l0,1.662l-1.442,0.011zm0,11.817l0,-9.623l1.442,0l0,9.64l-1.442,-0.017zm3.645,-8.328l0,-1.295l7.153,0l0,1.295l-5.4,7.06l5.4,0l0,1.295l-7.153,0l0,-1.304l5.38,-7.052l-5.38,0.001zm15.857,7.153l0.56,-0.055l0,1.14a27.74,27.74 0 0 1 -3.765,0.312a3.39,3.39 0 0 1 -2.947,-1.203c-0.666,-1.13 -0.97,-2.438 -0.872,-3.746q0,-5.068 4.03,-5.068c1.084,-0.085 2.15,0.315 2.9,1.093a5.08,5.08 0 0 1 0.964,3.425l-0.073,1.102l-6.326,0a3.97,3.97 0 0 0 0.578,2.37a2.37,2.37 0 0 0 2.011,0.771q1.442,-0.028 2.93,-0.138l0.01,-0.003zm-0.523,-4.215c0.078,-0.875 -0.12,-1.75 -0.57,-2.507c-0.46,-0.522 -1.142,-0.795 -1.836,-0.735a2.37,2.37 0 0 0 -1.928,0.771c-0.492,0.725 -0.725,1.596 -0.66,2.47l4.994,0.001z" fill="black" id="svg_28"/>
 </g>
</svg>